<?xml version="1.0" standalone="no"?>
<!DOCTYPE svg PUBLIC "-//W3C//DTD SVG 20010904//EN"
 "http://www.w3.org/TR/2001/REC-SVG-20010904/DTD/svg10.dtd">
<svg version="1.0" xmlns="http://www.w3.org/2000/svg"
 width="1280.000000pt" height="1148.000000pt" viewBox="0 0 1280.000000 1148.000000"
 preserveAspectRatio="xMidYMid meet">
<g transform="translate(0.000000,1148.000000) scale(0.100000,-0.100000)"
fill="#000000" stroke="none">
<path d="M3880 11469 c-543 -48 -891 -124 -1285 -279 -1326 -524 -2276 -1687
-2524 -3090 -25 -140 -46 -329 -63 -552 -11 -152 -10 -188 11 -420 25 -285 56
-486 107 -697 310 -1275 1230 -2332 2454 -2819 419 -167 883 -264 1323 -279
170 -6 187 -5 187 11 0 9 -6 60 -14 114 -45 303 -54 785 -22 1086 51 480 171
949 350 1365 20 46 35 86 33 88 -2 2 -35 -15 -72 -38 -120 -72 -287 -133 -440
-160 l-65 -11 0 -173 c0 -148 -2 -174 -16 -179 -31 -12 -409 -7 -422 6 -8 8
-12 64 -12 184 l0 172 -72 12 c-272 45 -559 214 -684 401 -124 187 -177 410
-178 759 l-1 195 475 0 475 0 7 -300 c3 -165 11 -325 17 -355 20 -99 61 -133
154 -127 68 4 101 25 137 88 24 43 25 48 23 234 -2 304 -28 401 -134 505 -57
56 -117 98 -448 315 -302 197 -408 285 -502 418 -107 152 -177 322 -205 498
-22 138 -15 368 15 487 92 365 366 588 821 668 l99 17 3 146 3 146 222 3 222
2 3 -147 3 -148 40 -8 c119 -25 243 -60 311 -88 223 -93 391 -274 462 -499 39
-121 46 -182 47 -358 0 -143 -3 -174 -15 -182 -24 -15 -923 -13 -938 2 -8 8
-12 61 -12 172 0 169 -11 270 -35 316 -29 57 -139 79 -202 40 -18 -10 -42 -39
-55 -62 -21 -39 -23 -56 -23 -183 0 -266 20 -288 553 -617 266 -165 402 -256
494 -332 175 -145 296 -395 327 -679 13 -110 13 -280 2 -379 -4 -38 -4 -68 0
-68 3 0 19 19 34 43 169 257 493 623 770 866 575 507 1243 855 1990 1039 88
22 195 46 238 53 51 9 77 17 77 26 0 22 -67 196 -135 350 -125 285 -329 617
-541 883 -133 167 -448 483 -610 612 -642 513 -1390 818 -2174 888 -69 6 -169
15 -223 21 -112 10 -231 10 -367 -2z"/>
<path d="M7966 11213 c-3 -3 -6 -113 -6 -244 l0 -239 28 -6 c188 -42 358 -110
478 -192 132 -89 267 -235 371 -400 72 -114 165 -299 161 -320 -3 -15 -28 -17
-277 -13 -239 3 -272 1 -269 -12 7 -33 823 -1356 831 -1348 5 5 199 307 432
672 l424 664 -297 8 c-163 4 -302 9 -307 11 -6 2 -28 48 -49 102 -110 283
-295 600 -453 776 -242 270 -539 437 -918 517 -55 12 -109 23 -121 26 -12 2
-24 2 -28 -2z"/>
<path d="M8455 8149 c-519 -34 -1035 -169 -1500 -393 -1181 -569 -2019 -1672
-2245 -2954 -48 -272 -55 -364 -55 -712 0 -358 9 -465 61 -750 248 -1355 1188
-2507 2474 -3030 532 -217 1169 -324 1728 -291 744 44 1380 247 1992 634 704
446 1279 1140 1588 1918 160 401 241 761 284 1257 22 250 22 254 4 470 -51
631 -165 1071 -405 1567 -354 732 -938 1355 -1651 1762 -680 389 -1482 573
-2275 522z m705 -1864 c107 -18 177 -35 298 -71 l82 -25 0 -484 c0 -274 -4
-486 -9 -489 -5 -3 -65 21 -134 54 -172 84 -314 120 -503 127 -234 10 -419
-28 -619 -126 -189 -92 -345 -220 -466 -379 l-51 -67 889 -5 888 -5 3 -212 2
-213 -980 0 -980 0 -9 -22 c-5 -13 -14 -71 -21 -130 -13 -116 0 -339 21 -365
9 -11 190 -13 990 -13 l979 0 -2 -212 -3 -213 -898 -5 -898 -5 50 -72 c66 -93
196 -223 298 -295 222 -160 469 -238 748 -238 216 0 404 45 591 141 50 26 96
44 103 40 8 -5 11 -135 9 -491 l-3 -484 -115 -34 c-343 -99 -738 -109 -1082
-26 -707 170 -1277 660 -1547 1334 l-50 125 -288 5 -288 5 -3 212 -2 213 242
2 243 3 -2 25 c-2 27 -2 377 1 450 l1 45 -243 3 -242 2 2 213 3 212 295 5 294
5 19 50 c47 128 158 344 238 463 107 158 288 355 439 478 190 155 466 307 697
383 127 42 312 83 448 100 115 14 451 6 565 -14z"/>
<path d="M3131 2140 c-232 -364 -424 -667 -427 -674 -4 -11 55 -15 295 -21
205 -5 303 -11 309 -19 5 -6 28 -60 52 -121 64 -160 178 -384 257 -505 266
-405 579 -629 1038 -743 77 -19 157 -38 178 -41 l37 -7 -2 246 -3 247 -112 28
c-383 97 -645 327 -864 758 -34 69 -59 128 -55 137 5 14 38 15 281 9 151 -4
275 -5 275 -1 0 6 -818 1348 -829 1360 -5 4 -198 -290 -430 -653z"/>
</g>
</svg>
